<mxfile host="app.diagrams.net" modified="2022-08-18T03:26:33.907Z" agent="5.0 (Macintosh; Intel Mac OS X 10_15_7) AppleWebKit/537.36 (KHTML, like Gecko) Chrome/104.0.0.0 Safari/537.36" etag="vwfNnCdzw2NsRgmkM6C0" version="20.2.4" type="github" pages="2">
  <diagram id="C5RBs43oDa-KdzZeNtuy" name="Page-1">
    <mxGraphModel dx="1577" dy="1023" grid="1" gridSize="10" guides="1" tooltips="1" connect="1" arrows="1" fold="1" page="1" pageScale="1" pageWidth="1169" pageHeight="1654" math="0" shadow="0">
      <root>
        <mxCell id="WIyWlLk6GJQsqaUBKTNV-0" />
        <mxCell id="WIyWlLk6GJQsqaUBKTNV-1" parent="WIyWlLk6GJQsqaUBKTNV-0" />
        <mxCell id="Qbf2WHQw0iOhFHIbaigR-1" value="DBImpl" style="swimlane;fontStyle=1;align=center;verticalAlign=top;childLayout=stackLayout;horizontal=1;startSize=26;horizontalStack=0;resizeParent=1;resizeParentMax=0;resizeLast=0;collapsible=1;marginBottom=0;fillColor=#B2C9AB;strokeColor=#788AA3;fontColor=#46495D;rounded=1;" parent="WIyWlLk6GJQsqaUBKTNV-1" vertex="1">
          <mxGeometry x="50" y="30" width="300" height="86" as="geometry" />
        </mxCell>
        <mxCell id="Qbf2WHQw0iOhFHIbaigR-2" value="Get(const ReadOptions&amp;, ColumnFamilyHandle *...)" style="text;strokeColor=none;fillColor=none;align=left;verticalAlign=top;spacingLeft=4;spacingRight=4;overflow=hidden;rotatable=0;points=[[0,0.5],[1,0.5]];portConstraint=eastwest;fontColor=#46495D;rounded=1;" parent="Qbf2WHQw0iOhFHIbaigR-1" vertex="1">
          <mxGeometry y="26" width="300" height="26" as="geometry" />
        </mxCell>
        <mxCell id="Qbf2WHQw0iOhFHIbaigR-3" value="" style="line;strokeWidth=1;fillColor=none;align=left;verticalAlign=middle;spacingTop=-1;spacingLeft=3;spacingRight=3;rotatable=0;labelPosition=right;points=[];portConstraint=eastwest;strokeColor=#788AA3;fontColor=#46495D;rounded=1;" parent="Qbf2WHQw0iOhFHIbaigR-1" vertex="1">
          <mxGeometry y="52" width="300" height="8" as="geometry" />
        </mxCell>
        <mxCell id="Qbf2WHQw0iOhFHIbaigR-4" value="直接进行转发，对转发结果会做检查" style="text;strokeColor=none;fillColor=none;align=left;verticalAlign=top;spacingLeft=4;spacingRight=4;overflow=hidden;rotatable=0;points=[[0,0.5],[1,0.5]];portConstraint=eastwest;fontColor=#46495D;rounded=1;" parent="Qbf2WHQw0iOhFHIbaigR-1" vertex="1">
          <mxGeometry y="60" width="300" height="26" as="geometry" />
        </mxCell>
        <mxCell id="Qbf2WHQw0iOhFHIbaigR-5" value="DBImpl" style="swimlane;fontStyle=1;align=center;verticalAlign=top;childLayout=stackLayout;horizontal=1;startSize=26;horizontalStack=0;resizeParent=1;resizeParentMax=0;resizeLast=0;collapsible=1;marginBottom=0;fillColor=#B2C9AB;strokeColor=#788AA3;fontColor=#46495D;rounded=1;" parent="WIyWlLk6GJQsqaUBKTNV-1" vertex="1">
          <mxGeometry x="20" y="170" width="370" height="150" as="geometry" />
        </mxCell>
        <mxCell id="Qbf2WHQw0iOhFHIbaigR-6" value="GetImpl(const ReadOptions&amp;, ColumnFamilyHandle *, &#xa;const Slice &amp;key, LazyBuffer *, bool *, ReadCallBack *) " style="text;strokeColor=none;fillColor=none;align=left;verticalAlign=top;spacingLeft=4;spacingRight=4;overflow=hidden;rotatable=0;points=[[0,0.5],[1,0.5]];portConstraint=eastwest;fontColor=#46495D;rounded=1;" parent="Qbf2WHQw0iOhFHIbaigR-5" vertex="1">
          <mxGeometry y="26" width="370" height="34" as="geometry" />
        </mxCell>
        <mxCell id="Qbf2WHQw0iOhFHIbaigR-7" value="" style="line;strokeWidth=1;fillColor=none;align=left;verticalAlign=middle;spacingTop=-1;spacingLeft=3;spacingRight=3;rotatable=0;labelPosition=right;points=[];portConstraint=eastwest;strokeColor=#788AA3;fontColor=#46495D;rounded=1;" parent="Qbf2WHQw0iOhFHIbaigR-5" vertex="1">
          <mxGeometry y="60" width="370" height="8" as="geometry" />
        </mxCell>
        <mxCell id="Qbf2WHQw0iOhFHIbaigR-8" value="这里内容比较多首先会对一些tracer的设置，之后进入正式的读流程。&#xa;读会获取SuperVersion和snapshot1以保证读取的正确性，&#xa;之后先查询memtable，若未查找到则查找immutable memtable，&#xa;若仍未找到，则需要进行磁盘查询，磁盘查询通过Version的Get方法&#xa;进行" style="text;strokeColor=none;fillColor=none;align=left;verticalAlign=top;spacingLeft=4;spacingRight=4;overflow=hidden;rotatable=0;points=[[0,0.5],[1,0.5]];portConstraint=eastwest;fontColor=#46495D;rounded=1;" parent="Qbf2WHQw0iOhFHIbaigR-5" vertex="1">
          <mxGeometry y="68" width="370" height="82" as="geometry" />
        </mxCell>
        <mxCell id="Qbf2WHQw0iOhFHIbaigR-10" value="Dispatch" style="html=1;verticalAlign=bottom;startArrow=oval;startFill=1;endArrow=block;startSize=8;rounded=1;exitX=0.53;exitY=0.981;exitDx=0;exitDy=0;entryX=0.5;entryY=0;entryDx=0;entryDy=0;exitPerimeter=0;strokeColor=#788AA3;fontColor=#46495D;" parent="WIyWlLk6GJQsqaUBKTNV-1" source="Qbf2WHQw0iOhFHIbaigR-4" target="Qbf2WHQw0iOhFHIbaigR-5" edge="1">
          <mxGeometry x="0.2548" y="-3" width="60" relative="1" as="geometry">
            <mxPoint x="360" y="320" as="sourcePoint" />
            <mxPoint x="420" y="320" as="targetPoint" />
            <mxPoint as="offset" />
          </mxGeometry>
        </mxCell>
        <mxCell id="Qbf2WHQw0iOhFHIbaigR-13" value="Version" style="swimlane;fontStyle=1;align=center;verticalAlign=top;childLayout=stackLayout;horizontal=1;startSize=26;horizontalStack=0;resizeParent=1;resizeParentMax=0;resizeLast=0;collapsible=1;marginBottom=0;fillColor=#B2C9AB;strokeColor=#788AA3;fontColor=#46495D;rounded=1;" parent="WIyWlLk6GJQsqaUBKTNV-1" vertex="1">
          <mxGeometry x="20" y="380" width="370" height="200" as="geometry" />
        </mxCell>
        <mxCell id="Qbf2WHQw0iOhFHIbaigR-14" value="Get" style="text;strokeColor=none;fillColor=none;align=left;verticalAlign=top;spacingLeft=4;spacingRight=4;overflow=hidden;rotatable=0;points=[[0,0.5],[1,0.5]];portConstraint=eastwest;fontColor=#46495D;rounded=1;" parent="Qbf2WHQw0iOhFHIbaigR-13" vertex="1">
          <mxGeometry y="26" width="370" height="26" as="geometry" />
        </mxCell>
        <mxCell id="Qbf2WHQw0iOhFHIbaigR-15" value="" style="line;strokeWidth=1;fillColor=none;align=left;verticalAlign=middle;spacingTop=-1;spacingLeft=3;spacingRight=3;rotatable=0;labelPosition=right;points=[];portConstraint=eastwest;strokeColor=#788AA3;fontColor=#46495D;rounded=1;" parent="Qbf2WHQw0iOhFHIbaigR-13" vertex="1">
          <mxGeometry y="52" width="370" height="8" as="geometry" />
        </mxCell>
        <mxCell id="Qbf2WHQw0iOhFHIbaigR-16" value="Get分为三个部分，第一个部分对key做准备，对应后面使用的接口。&#xa;第二部分准备GetContext和FilePicker来进行后续的正式读。&#xa;GetContext会提供一些读的信息，例如是否已经在当前访问的文件中&#xa;完成了读操作、读的状态等。FilePicker则会将需要读取的文件逐一&#xa;提供。读操作实际由TableCache的Get执行。&#xa;第三部分做返回前的stats报告和一些检查，不太重要。&#xa;&#xa;一个需要注意的点是在第二部分，TableCache不会直接返回值，而是&#xa;通过GetContext进行返回&#xa;" style="text;strokeColor=none;fillColor=none;align=left;verticalAlign=top;spacingLeft=4;spacingRight=4;overflow=hidden;rotatable=0;points=[[0,0.5],[1,0.5]];portConstraint=eastwest;fontColor=#46495D;rounded=1;" parent="Qbf2WHQw0iOhFHIbaigR-13" vertex="1">
          <mxGeometry y="60" width="370" height="140" as="geometry" />
        </mxCell>
        <mxCell id="Qbf2WHQw0iOhFHIbaigR-17" value="Referenced Class" style="swimlane;fontStyle=0;childLayout=stackLayout;horizontal=1;startSize=26;fillColor=none;horizontalStack=0;resizeParent=1;resizeParentMax=0;resizeLast=0;collapsible=1;marginBottom=0;strokeColor=#788AA3;fontColor=#46495D;rounded=1;" parent="WIyWlLk6GJQsqaUBKTNV-1" vertex="1">
          <mxGeometry x="510" y="190" width="140" height="78" as="geometry" />
        </mxCell>
        <mxCell id="Qbf2WHQw0iOhFHIbaigR-18" value="SuperVersion" style="text;strokeColor=none;fillColor=none;align=left;verticalAlign=top;spacingLeft=4;spacingRight=4;overflow=hidden;rotatable=0;points=[[0,0.5],[1,0.5]];portConstraint=eastwest;fontColor=#46495D;rounded=1;" parent="Qbf2WHQw0iOhFHIbaigR-17" vertex="1">
          <mxGeometry y="26" width="140" height="26" as="geometry" />
        </mxCell>
        <mxCell id="Qbf2WHQw0iOhFHIbaigR-19" value="Version" style="text;strokeColor=none;fillColor=none;align=left;verticalAlign=top;spacingLeft=4;spacingRight=4;overflow=hidden;rotatable=0;points=[[0,0.5],[1,0.5]];portConstraint=eastwest;fontColor=#46495D;rounded=1;" parent="Qbf2WHQw0iOhFHIbaigR-17" vertex="1">
          <mxGeometry y="52" width="140" height="26" as="geometry" />
        </mxCell>
        <mxCell id="Qbf2WHQw0iOhFHIbaigR-21" value="Use" style="endArrow=open;endSize=12;dashed=1;html=1;rounded=1;exitX=1;exitY=0.5;exitDx=0;exitDy=0;entryX=-0.007;entryY=0.173;entryDx=0;entryDy=0;entryPerimeter=0;strokeColor=#788AA3;fontColor=#46495D;" parent="WIyWlLk6GJQsqaUBKTNV-1" source="Qbf2WHQw0iOhFHIbaigR-6" target="Qbf2WHQw0iOhFHIbaigR-17" edge="1">
          <mxGeometry width="160" relative="1" as="geometry">
            <mxPoint x="310" y="320" as="sourcePoint" />
            <mxPoint x="470" y="320" as="targetPoint" />
          </mxGeometry>
        </mxCell>
        <mxCell id="Qbf2WHQw0iOhFHIbaigR-23" value="Call" style="html=1;verticalAlign=bottom;startArrow=oval;startFill=1;endArrow=block;startSize=8;rounded=1;exitX=0.497;exitY=1.03;exitDx=0;exitDy=0;exitPerimeter=0;entryX=0.5;entryY=0;entryDx=0;entryDy=0;strokeColor=#788AA3;fontColor=#46495D;" parent="WIyWlLk6GJQsqaUBKTNV-1" source="Qbf2WHQw0iOhFHIbaigR-8" target="Qbf2WHQw0iOhFHIbaigR-13" edge="1">
          <mxGeometry x="0.1119" width="60" relative="1" as="geometry">
            <mxPoint x="360" y="320" as="sourcePoint" />
            <mxPoint x="420" y="320" as="targetPoint" />
            <mxPoint as="offset" />
          </mxGeometry>
        </mxCell>
        <mxCell id="Qbf2WHQw0iOhFHIbaigR-24" value="Referenced Class" style="swimlane;fontStyle=0;childLayout=stackLayout;horizontal=1;startSize=26;fillColor=none;horizontalStack=0;resizeParent=1;resizeParentMax=0;resizeLast=0;collapsible=1;marginBottom=0;strokeColor=#788AA3;fontColor=#46495D;rounded=1;" parent="WIyWlLk6GJQsqaUBKTNV-1" vertex="1">
          <mxGeometry x="510" y="410" width="140" height="104" as="geometry">
            <mxRectangle x="510" y="410" width="140" height="30" as="alternateBounds" />
          </mxGeometry>
        </mxCell>
        <mxCell id="Qbf2WHQw0iOhFHIbaigR-25" value="GetContext" style="text;strokeColor=#6c8ebf;fillColor=#dae8fc;align=left;verticalAlign=top;spacingLeft=4;spacingRight=4;overflow=hidden;rotatable=0;points=[[0,0.5],[1,0.5]];portConstraint=eastwest;rounded=1;labelBackgroundColor=none;" parent="Qbf2WHQw0iOhFHIbaigR-24" vertex="1">
          <mxGeometry y="26" width="140" height="26" as="geometry" />
        </mxCell>
        <mxCell id="Qbf2WHQw0iOhFHIbaigR-26" value="FilePicker&#xa;" style="text;strokeColor=#6c8ebf;fillColor=#dae8fc;align=left;verticalAlign=top;spacingLeft=4;spacingRight=4;overflow=hidden;rotatable=0;points=[[0,0.5],[1,0.5]];portConstraint=eastwest;rounded=1;" parent="Qbf2WHQw0iOhFHIbaigR-24" vertex="1">
          <mxGeometry y="52" width="140" height="26" as="geometry" />
        </mxCell>
        <mxCell id="Qbf2WHQw0iOhFHIbaigR-30" value="TableCache" style="text;strokeColor=#6c8ebf;fillColor=#dae8fc;align=left;verticalAlign=top;spacingLeft=4;spacingRight=4;overflow=hidden;rotatable=0;points=[[0,0.5],[1,0.5]];portConstraint=eastwest;rounded=1;" parent="Qbf2WHQw0iOhFHIbaigR-24" vertex="1">
          <mxGeometry y="78" width="140" height="26" as="geometry" />
        </mxCell>
        <mxCell id="Qbf2WHQw0iOhFHIbaigR-27" value="Use" style="endArrow=open;endSize=12;dashed=1;html=1;rounded=1;exitX=1;exitY=0.5;exitDx=0;exitDy=0;entryX=-0.007;entryY=0.173;entryDx=0;entryDy=0;entryPerimeter=0;strokeColor=#788AA3;fontColor=#46495D;" parent="WIyWlLk6GJQsqaUBKTNV-1" target="Qbf2WHQw0iOhFHIbaigR-24" edge="1">
          <mxGeometry width="160" relative="1" as="geometry">
            <mxPoint x="390" y="433" as="sourcePoint" />
            <mxPoint x="470" y="540" as="targetPoint" />
          </mxGeometry>
        </mxCell>
        <mxCell id="Qbf2WHQw0iOhFHIbaigR-31" value="TableCache" style="swimlane;fontStyle=1;align=center;verticalAlign=top;childLayout=stackLayout;horizontal=1;startSize=26;horizontalStack=0;resizeParent=1;resizeParentMax=0;resizeLast=0;collapsible=1;marginBottom=0;fillColor=#f8cecc;strokeColor=#b85450;rounded=1;" parent="WIyWlLk6GJQsqaUBKTNV-1" vertex="1">
          <mxGeometry x="20" y="630" width="380" height="228" as="geometry" />
        </mxCell>
        <mxCell id="Qbf2WHQw0iOhFHIbaigR-32" value="Get" style="text;strokeColor=default;fillColor=none;align=left;verticalAlign=top;spacingLeft=4;spacingRight=4;overflow=hidden;rotatable=0;points=[[0,0.5],[1,0.5]];portConstraint=eastwest;fontColor=#46495D;rounded=1;" parent="Qbf2WHQw0iOhFHIbaigR-31" vertex="1">
          <mxGeometry y="26" width="380" height="26" as="geometry" />
        </mxCell>
        <mxCell id="Qbf2WHQw0iOhFHIbaigR-43" value="TableCache首先准备一些参数来进行cache访问，如果没有访问到，则&#xa;准备一些信息开始进行文件访问，例如TableReader，Cache::Handle。&#xa;如果TableReader不能正常生成，则会通过FindTable方法构建&#xa;TableReader。这个过程可能会读文件对cache进行装填。&#xa;&#xa;上述过程结束后，正式进行cache的装填。如果文件不是一个map sst，&#xa;那么直接向下调用对应TableReader的Get方法。如果是，则需要将查&#xa;询转发到对应的SST，这个转发会在一些信息的准备完毕之后通过一&#xa;次递归调用完成。&#xa;&#xa;但是那个inheritance是什么？" style="text;strokeColor=none;fillColor=none;align=left;verticalAlign=top;spacingLeft=4;spacingRight=4;overflow=hidden;rotatable=0;points=[[0,0.5],[1,0.5]];portConstraint=eastwest;fontColor=#46495D;rounded=1;" parent="Qbf2WHQw0iOhFHIbaigR-31" vertex="1">
          <mxGeometry y="52" width="380" height="168" as="geometry" />
        </mxCell>
        <mxCell id="Qbf2WHQw0iOhFHIbaigR-33" value="" style="line;strokeWidth=1;fillColor=none;align=left;verticalAlign=middle;spacingTop=-1;spacingLeft=3;spacingRight=3;rotatable=0;labelPosition=right;points=[];portConstraint=eastwest;strokeColor=#788AA3;fontColor=#46495D;rounded=1;" parent="Qbf2WHQw0iOhFHIbaigR-31" vertex="1">
          <mxGeometry y="220" width="380" height="8" as="geometry" />
        </mxCell>
        <mxCell id="Qbf2WHQw0iOhFHIbaigR-35" value="Call" style="html=1;verticalAlign=bottom;startArrow=oval;startFill=1;endArrow=block;startSize=8;rounded=1;exitX=0.509;exitY=1.02;exitDx=0;exitDy=0;exitPerimeter=0;entryX=0.5;entryY=0;entryDx=0;entryDy=0;strokeColor=#788AA3;fontColor=#46495D;" parent="WIyWlLk6GJQsqaUBKTNV-1" source="Qbf2WHQw0iOhFHIbaigR-16" target="Qbf2WHQw0iOhFHIbaigR-31" edge="1">
          <mxGeometry x="0.1119" width="60" relative="1" as="geometry">
            <mxPoint x="213.8900000000001" y="332.46000000000004" as="sourcePoint" />
            <mxPoint x="215" y="400" as="targetPoint" />
            <mxPoint as="offset" />
          </mxGeometry>
        </mxCell>
        <mxCell id="Qbf2WHQw0iOhFHIbaigR-37" value="Referenced Class" style="swimlane;fontStyle=0;childLayout=stackLayout;horizontal=1;startSize=26;fillColor=none;horizontalStack=0;resizeParent=1;resizeParentMax=0;resizeLast=0;collapsible=1;marginBottom=0;strokeColor=#788AA3;fontColor=#46495D;rounded=1;" parent="WIyWlLk6GJQsqaUBKTNV-1" vertex="1">
          <mxGeometry x="500" y="620" width="140" height="104" as="geometry">
            <mxRectangle x="510" y="410" width="140" height="30" as="alternateBounds" />
          </mxGeometry>
        </mxCell>
        <mxCell id="Qbf2WHQw0iOhFHIbaigR-38" value="TableReader" style="text;strokeColor=#6c8ebf;fillColor=#dae8fc;align=left;verticalAlign=top;spacingLeft=4;spacingRight=4;overflow=hidden;rotatable=0;points=[[0,0.5],[1,0.5]];portConstraint=eastwest;rounded=1;labelBackgroundColor=none;" parent="Qbf2WHQw0iOhFHIbaigR-37" vertex="1">
          <mxGeometry y="26" width="140" height="26" as="geometry" />
        </mxCell>
        <mxCell id="Qbf2WHQw0iOhFHIbaigR-39" value="Cache::Handle" style="text;strokeColor=#6c8ebf;fillColor=#dae8fc;align=left;verticalAlign=top;spacingLeft=4;spacingRight=4;overflow=hidden;rotatable=0;points=[[0,0.5],[1,0.5]];portConstraint=eastwest;rounded=1;" parent="Qbf2WHQw0iOhFHIbaigR-37" vertex="1">
          <mxGeometry y="52" width="140" height="26" as="geometry" />
        </mxCell>
        <mxCell id="Qbf2WHQw0iOhFHIbaigR-40" value="DependenceMap" style="text;strokeColor=#6c8ebf;fillColor=#dae8fc;align=left;verticalAlign=top;spacingLeft=4;spacingRight=4;overflow=hidden;rotatable=0;points=[[0,0.5],[1,0.5]];portConstraint=eastwest;rounded=1;" parent="Qbf2WHQw0iOhFHIbaigR-37" vertex="1">
          <mxGeometry y="78" width="140" height="26" as="geometry" />
        </mxCell>
        <mxCell id="Qbf2WHQw0iOhFHIbaigR-41" value="Use" style="endArrow=open;endSize=12;dashed=1;html=1;rounded=1;exitX=1;exitY=0.25;exitDx=0;exitDy=0;entryX=-0.007;entryY=0.173;entryDx=0;entryDy=0;entryPerimeter=0;strokeColor=#788AA3;fontColor=#46495D;" parent="WIyWlLk6GJQsqaUBKTNV-1" source="Qbf2WHQw0iOhFHIbaigR-31" target="Qbf2WHQw0iOhFHIbaigR-37" edge="1">
          <mxGeometry width="160" relative="1" as="geometry">
            <mxPoint x="380" y="643" as="sourcePoint" />
            <mxPoint x="460" y="750" as="targetPoint" />
          </mxGeometry>
        </mxCell>
        <mxCell id="Qbf2WHQw0iOhFHIbaigR-48" value="Call" style="html=1;verticalAlign=bottom;startArrow=oval;startFill=1;endArrow=block;startSize=8;rounded=1;entryX=0.5;entryY=0;entryDx=0;entryDy=0;strokeColor=#788AA3;fontColor=#46495D;exitX=0.5;exitY=1;exitDx=0;exitDy=0;" parent="WIyWlLk6GJQsqaUBKTNV-1" source="Qbf2WHQw0iOhFHIbaigR-31" edge="1">
          <mxGeometry x="0.1119" width="60" relative="1" as="geometry">
            <mxPoint x="230" y="850" as="sourcePoint" />
            <mxPoint x="210" y="920" as="targetPoint" />
            <mxPoint as="offset" />
          </mxGeometry>
        </mxCell>
        <mxCell id="Qbf2WHQw0iOhFHIbaigR-56" style="edgeStyle=orthogonalEdgeStyle;rounded=1;orthogonalLoop=1;jettySize=auto;html=1;entryX=0.5;entryY=0;entryDx=0;entryDy=0;fontColor=#46495D;strokeColor=#788AA3;fillColor=#B2C9AB;startArrow=oval;startFill=1;" parent="WIyWlLk6GJQsqaUBKTNV-1" source="Qbf2WHQw0iOhFHIbaigR-43" target="Qbf2WHQw0iOhFHIbaigR-64" edge="1">
          <mxGeometry relative="1" as="geometry">
            <mxPoint x="620" y="920" as="targetPoint" />
          </mxGeometry>
        </mxCell>
        <mxCell id="Qbf2WHQw0iOhFHIbaigR-57" value="&lt;meta charset=&quot;utf-8&quot;&gt;&lt;span style=&quot;color: rgb(70, 73, 93); font-family: Helvetica; font-size: 11px; font-style: normal; font-variant-ligatures: normal; font-variant-caps: normal; font-weight: 400; letter-spacing: normal; orphans: 2; text-align: center; text-indent: 0px; text-transform: none; widows: 2; word-spacing: 0px; -webkit-text-stroke-width: 0px; background-color: rgb(255, 255, 255); text-decoration-thickness: initial; text-decoration-style: initial; text-decoration-color: initial; float: none; display: inline !important;&quot;&gt;Call&lt;/span&gt;" style="text;whiteSpace=wrap;html=1;fontColor=#46495D;" parent="WIyWlLk6GJQsqaUBKTNV-1" vertex="1">
          <mxGeometry x="480" y="770" width="30" height="40" as="geometry" />
        </mxCell>
        <mxCell id="Qbf2WHQw0iOhFHIbaigR-60" value="BlockBasedTable" style="swimlane;fontStyle=1;align=center;verticalAlign=top;childLayout=stackLayout;horizontal=1;startSize=26;horizontalStack=0;resizeParent=1;resizeParentMax=0;resizeLast=0;collapsible=1;marginBottom=0;fillColor=#f8cecc;strokeColor=#b85450;rounded=1;" parent="WIyWlLk6GJQsqaUBKTNV-1" vertex="1">
          <mxGeometry x="20" y="920" width="380" height="148" as="geometry" />
        </mxCell>
        <mxCell id="Qbf2WHQw0iOhFHIbaigR-61" value="Get" style="text;strokeColor=default;fillColor=none;align=left;verticalAlign=top;spacingLeft=4;spacingRight=4;overflow=hidden;rotatable=0;points=[[0,0.5],[1,0.5]];portConstraint=eastwest;fontColor=#46495D;rounded=1;" parent="Qbf2WHQw0iOhFHIbaigR-60" vertex="1">
          <mxGeometry y="26" width="380" height="26" as="geometry" />
        </mxCell>
        <mxCell id="Qbf2WHQw0iOhFHIbaigR-62" value="Get会通过filter概率性判断Key是否存在，如果不存在则可直接返回。&#xa;&#xa;若判断可能存在，则需要进入SST进行查找。这里可能会涉及多个&#xa;IndexBlock和DataBlock的查询，也可能通过filter直接判定key不存在。&#xa;但无论怎样，如果发现了键存在，就可以读取并为最终返回做准备了。" style="text;strokeColor=none;fillColor=none;align=left;verticalAlign=top;spacingLeft=4;spacingRight=4;overflow=hidden;rotatable=0;points=[[0,0.5],[1,0.5]];portConstraint=eastwest;fontColor=#46495D;rounded=1;" parent="Qbf2WHQw0iOhFHIbaigR-60" vertex="1">
          <mxGeometry y="52" width="380" height="88" as="geometry" />
        </mxCell>
        <mxCell id="Qbf2WHQw0iOhFHIbaigR-63" value="" style="line;strokeWidth=1;fillColor=none;align=left;verticalAlign=middle;spacingTop=-1;spacingLeft=3;spacingRight=3;rotatable=0;labelPosition=right;points=[];portConstraint=eastwest;strokeColor=#788AA3;fontColor=#46495D;rounded=1;" parent="Qbf2WHQw0iOhFHIbaigR-60" vertex="1">
          <mxGeometry y="140" width="380" height="8" as="geometry" />
        </mxCell>
        <mxCell id="Qbf2WHQw0iOhFHIbaigR-64" value="BlockBasedTable" style="swimlane;fontStyle=1;align=center;verticalAlign=top;childLayout=stackLayout;horizontal=1;startSize=26;horizontalStack=0;resizeParent=1;resizeParentMax=0;resizeLast=0;collapsible=1;marginBottom=0;fillColor=#f8cecc;strokeColor=#b85450;rounded=1;" parent="WIyWlLk6GJQsqaUBKTNV-1" vertex="1">
          <mxGeometry x="710" y="827" width="380" height="228" as="geometry" />
        </mxCell>
        <mxCell id="Qbf2WHQw0iOhFHIbaigR-65" value="RangeScan" style="text;strokeColor=default;fillColor=none;align=left;verticalAlign=top;spacingLeft=4;spacingRight=4;overflow=hidden;rotatable=0;points=[[0,0.5],[1,0.5]];portConstraint=eastwest;fontColor=#46495D;rounded=1;" parent="Qbf2WHQw0iOhFHIbaigR-64" vertex="1">
          <mxGeometry y="26" width="380" height="26" as="geometry" />
        </mxCell>
        <mxCell id="Qbf2WHQw0iOhFHIbaigR-66" value="TableCache首先准备一些参数来进行cache访问，如果没有访问到，则&#xa;准备一些信息开始进行文件访问，例如TableReader，Cache::Handle。&#xa;如果TableReader不能正常生成，则会通过FindTable方法构建&#xa;TableReader。这个过程可能会读文件对cache进行装填。&#xa;&#xa;上述过程结束后，正式进行cache的装填。如果文件不是一个map sst，&#xa;那么直接向下调用对应TableReader的Get方法。如果是，则需要将查&#xa;询转发到对应的SST，这个转发会在一些信息的准备完毕之后通过一&#xa;次递归调用完成。&#xa;&#xa;但是那个inheritance是什么？" style="text;strokeColor=none;fillColor=none;align=left;verticalAlign=top;spacingLeft=4;spacingRight=4;overflow=hidden;rotatable=0;points=[[0,0.5],[1,0.5]];portConstraint=eastwest;fontColor=#46495D;rounded=1;" parent="Qbf2WHQw0iOhFHIbaigR-64" vertex="1">
          <mxGeometry y="52" width="380" height="168" as="geometry" />
        </mxCell>
        <mxCell id="Qbf2WHQw0iOhFHIbaigR-67" value="" style="line;strokeWidth=1;fillColor=none;align=left;verticalAlign=middle;spacingTop=-1;spacingLeft=3;spacingRight=3;rotatable=0;labelPosition=right;points=[];portConstraint=eastwest;strokeColor=#788AA3;fontColor=#46495D;rounded=1;" parent="Qbf2WHQw0iOhFHIbaigR-64" vertex="1">
          <mxGeometry y="220" width="380" height="8" as="geometry" />
        </mxCell>
        <mxCell id="Qbf2WHQw0iOhFHIbaigR-68" value="GetContext" style="swimlane;fontStyle=1;align=center;verticalAlign=top;childLayout=stackLayout;horizontal=1;startSize=26;horizontalStack=0;resizeParent=1;resizeParentMax=0;resizeLast=0;collapsible=1;marginBottom=0;fillColor=#a20025;strokeColor=#6F0000;rounded=1;fontColor=#ffffff;" parent="WIyWlLk6GJQsqaUBKTNV-1" vertex="1">
          <mxGeometry x="20" y="1150" width="410" height="148" as="geometry" />
        </mxCell>
        <mxCell id="Qbf2WHQw0iOhFHIbaigR-69" value="SaveValue(const ParsedInternalKey &amp;, LazyBuffer &amp;&amp;buffer, bool *matched)" style="text;strokeColor=default;fillColor=none;align=left;verticalAlign=top;spacingLeft=4;spacingRight=4;overflow=hidden;rotatable=0;points=[[0,0.5],[1,0.5]];portConstraint=eastwest;fontColor=#46495D;rounded=1;" parent="Qbf2WHQw0iOhFHIbaigR-68" vertex="1">
          <mxGeometry y="26" width="410" height="26" as="geometry" />
        </mxCell>
        <mxCell id="Qbf2WHQw0iOhFHIbaigR-70" value="这里是KV分离读取的关键位置，在一系列的条件检查之后，在函数的194行&#xa;开始对不同类型的value采取不同的操作。&#xa;如果是KV分离的，则进入kTypeValueIndex分支，通过SeparateHelper进入&#xa;Version::TransToCombined，将该value关联的文件的fileno等信息装载进一&#xa;个LazyBuffer并返回，这个LazyBuffer被GetContext内的lazy_val_域保管。" style="text;strokeColor=none;fillColor=none;align=left;verticalAlign=top;spacingLeft=4;spacingRight=4;overflow=hidden;rotatable=0;points=[[0,0.5],[1,0.5]];portConstraint=eastwest;fontColor=#46495D;rounded=1;" parent="Qbf2WHQw0iOhFHIbaigR-68" vertex="1">
          <mxGeometry y="52" width="410" height="88" as="geometry" />
        </mxCell>
        <mxCell id="Qbf2WHQw0iOhFHIbaigR-71" value="" style="line;strokeWidth=1;fillColor=none;align=left;verticalAlign=middle;spacingTop=-1;spacingLeft=3;spacingRight=3;rotatable=0;labelPosition=right;points=[];portConstraint=eastwest;strokeColor=#788AA3;fontColor=#46495D;rounded=1;" parent="Qbf2WHQw0iOhFHIbaigR-68" vertex="1">
          <mxGeometry y="140" width="410" height="8" as="geometry" />
        </mxCell>
        <mxCell id="Qbf2WHQw0iOhFHIbaigR-72" value="Call" style="html=1;verticalAlign=bottom;startArrow=oval;startFill=1;endArrow=block;startSize=8;rounded=1;entryX=0.5;entryY=0;entryDx=0;entryDy=0;strokeColor=#788AA3;fontColor=#46495D;exitX=0.489;exitY=0.24;exitDx=0;exitDy=0;exitPerimeter=0;" parent="WIyWlLk6GJQsqaUBKTNV-1" source="Qbf2WHQw0iOhFHIbaigR-63" target="Qbf2WHQw0iOhFHIbaigR-68" edge="1">
          <mxGeometry x="0.1119" width="60" relative="1" as="geometry">
            <mxPoint x="220" y="868" as="sourcePoint" />
            <mxPoint x="220" y="930" as="targetPoint" />
            <mxPoint as="offset" />
          </mxGeometry>
        </mxCell>
        <mxCell id="Qbf2WHQw0iOhFHIbaigR-78" value="Referenced Class" style="swimlane;fontStyle=0;childLayout=stackLayout;horizontal=1;startSize=26;fillColor=none;horizontalStack=0;resizeParent=1;resizeParentMax=0;resizeLast=0;collapsible=1;marginBottom=0;strokeColor=#788AA3;fontColor=#46495D;rounded=1;" parent="WIyWlLk6GJQsqaUBKTNV-1" vertex="1">
          <mxGeometry x="460" y="1240" width="140" height="52" as="geometry">
            <mxRectangle x="510" y="410" width="140" height="30" as="alternateBounds" />
          </mxGeometry>
        </mxCell>
        <mxCell id="Qbf2WHQw0iOhFHIbaigR-79" value="LazyBuffer" style="text;strokeColor=#6F0000;fillColor=#a20025;align=left;verticalAlign=top;spacingLeft=4;spacingRight=4;overflow=hidden;rotatable=0;points=[[0,0.5],[1,0.5]];portConstraint=eastwest;rounded=1;labelBackgroundColor=none;fontColor=#ffffff;" parent="Qbf2WHQw0iOhFHIbaigR-78" vertex="1">
          <mxGeometry y="26" width="140" height="26" as="geometry" />
        </mxCell>
        <mxCell id="Qbf2WHQw0iOhFHIbaigR-82" value="Use" style="endArrow=open;endSize=12;dashed=1;html=1;rounded=1;exitX=1;exitY=0.25;exitDx=0;exitDy=0;entryX=-0.007;entryY=0.173;entryDx=0;entryDy=0;entryPerimeter=0;strokeColor=#788AA3;fontColor=#46495D;" parent="WIyWlLk6GJQsqaUBKTNV-1" target="Qbf2WHQw0iOhFHIbaigR-78" edge="1">
          <mxGeometry width="160" relative="1" as="geometry">
            <mxPoint x="430" y="1176.9999999999998" as="sourcePoint" />
            <mxPoint x="490" y="1240" as="targetPoint" />
          </mxGeometry>
        </mxCell>
        <mxCell id="Ulyw2CnoF-tHrXGGG-Es-0" value="Version" style="swimlane;fontStyle=1;align=center;verticalAlign=top;childLayout=stackLayout;horizontal=1;startSize=26;horizontalStack=0;resizeParent=1;resizeParentMax=0;resizeLast=0;collapsible=1;marginBottom=0;fillColor=#a20025;strokeColor=#6F0000;rounded=1;fontColor=#ffffff;" parent="WIyWlLk6GJQsqaUBKTNV-1" vertex="1">
          <mxGeometry x="20" y="1390" width="480" height="108" as="geometry" />
        </mxCell>
        <mxCell id="Ulyw2CnoF-tHrXGGG-Es-1" value="TransToCombined(const Slice &amp;user_key, uint64_t sequence, const LazyBuffer &amp;value)" style="text;strokeColor=default;fillColor=none;align=left;verticalAlign=top;spacingLeft=4;spacingRight=4;overflow=hidden;rotatable=0;points=[[0,0.5],[1,0.5]];portConstraint=eastwest;fontColor=#46495D;rounded=1;" parent="Ulyw2CnoF-tHrXGGG-Es-0" vertex="1">
          <mxGeometry y="26" width="480" height="26" as="geometry" />
        </mxCell>
        <mxCell id="Ulyw2CnoF-tHrXGGG-Es-2" value="这里利用SeparateHelper解析出fileno，之后查询dependence map，将fileno对应的文件的&#xa;信息，key，无效Slice作为的值和文件号存储在lazybuffer中并返回。" style="text;strokeColor=none;fillColor=none;align=left;verticalAlign=top;spacingLeft=4;spacingRight=4;overflow=hidden;rotatable=0;points=[[0,0.5],[1,0.5]];portConstraint=eastwest;fontColor=#46495D;rounded=1;" parent="Ulyw2CnoF-tHrXGGG-Es-0" vertex="1">
          <mxGeometry y="52" width="480" height="48" as="geometry" />
        </mxCell>
        <mxCell id="Ulyw2CnoF-tHrXGGG-Es-3" value="" style="line;strokeWidth=1;fillColor=none;align=left;verticalAlign=middle;spacingTop=-1;spacingLeft=3;spacingRight=3;rotatable=0;labelPosition=right;points=[];portConstraint=eastwest;strokeColor=#788AA3;fontColor=#46495D;rounded=1;" parent="Ulyw2CnoF-tHrXGGG-Es-0" vertex="1">
          <mxGeometry y="100" width="480" height="8" as="geometry" />
        </mxCell>
        <mxCell id="Ulyw2CnoF-tHrXGGG-Es-4" value="Use" style="endArrow=open;endSize=12;dashed=1;html=1;rounded=1;exitX=0.838;exitY=0;exitDx=0;exitDy=0;strokeColor=#788AA3;fontColor=#46495D;exitPerimeter=0;" parent="WIyWlLk6GJQsqaUBKTNV-1" source="Ulyw2CnoF-tHrXGGG-Es-0" target="Qbf2WHQw0iOhFHIbaigR-79" edge="1">
          <mxGeometry width="160" relative="1" as="geometry">
            <mxPoint x="440" y="1186.9999999999998" as="sourcePoint" />
            <mxPoint x="509.02" y="1148.996" as="targetPoint" />
          </mxGeometry>
        </mxCell>
        <mxCell id="Ulyw2CnoF-tHrXGGG-Es-5" value="Call" style="html=1;verticalAlign=bottom;startArrow=oval;startFill=1;endArrow=block;startSize=8;rounded=1;entryX=0.475;entryY=-0.037;entryDx=0;entryDy=0;strokeColor=#788AA3;fontColor=#46495D;exitX=0.51;exitY=0.5;exitDx=0;exitDy=0;exitPerimeter=0;entryPerimeter=0;" parent="WIyWlLk6GJQsqaUBKTNV-1" source="Qbf2WHQw0iOhFHIbaigR-71" target="Ulyw2CnoF-tHrXGGG-Es-0" edge="1">
          <mxGeometry x="0.1119" width="60" relative="1" as="geometry">
            <mxPoint x="215.81999999999994" y="1071.92" as="sourcePoint" />
            <mxPoint x="235" y="1160" as="targetPoint" />
            <mxPoint as="offset" />
          </mxGeometry>
        </mxCell>
        <mxCell id="G9MkarZCaZgqYIB9QYQQ-4" value="Indirect Recursive Call" style="edgeStyle=orthogonalEdgeStyle;rounded=0;orthogonalLoop=1;jettySize=auto;html=1;exitX=1;exitY=0.5;exitDx=0;exitDy=0;entryX=1;entryY=0.5;entryDx=0;entryDy=0;" edge="1" parent="WIyWlLk6GJQsqaUBKTNV-1" source="Ulyw2CnoF-tHrXGGG-Es-2" target="Qbf2WHQw0iOhFHIbaigR-43">
          <mxGeometry x="-0.083" y="-10" relative="1" as="geometry">
            <Array as="points">
              <mxPoint x="630" y="1466" />
              <mxPoint x="630" y="766" />
            </Array>
            <mxPoint y="1" as="offset" />
          </mxGeometry>
        </mxCell>
        <mxCell id="G9MkarZCaZgqYIB9QYQQ-16" style="edgeStyle=orthogonalEdgeStyle;rounded=0;orthogonalLoop=1;jettySize=auto;html=1;exitX=0.5;exitY=1;exitDx=0;exitDy=0;entryX=0.5;entryY=0;entryDx=0;entryDy=0;" edge="1" parent="WIyWlLk6GJQsqaUBKTNV-1" source="G9MkarZCaZgqYIB9QYQQ-5" target="G9MkarZCaZgqYIB9QYQQ-12">
          <mxGeometry relative="1" as="geometry" />
        </mxCell>
        <mxCell id="G9MkarZCaZgqYIB9QYQQ-5" value="BlockBasedTable" style="swimlane;fontStyle=1;align=center;verticalAlign=top;childLayout=stackLayout;horizontal=1;startSize=26;horizontalStack=0;resizeParent=1;resizeParentMax=0;resizeLast=0;collapsible=1;marginBottom=0;fillColor=#a20025;strokeColor=#6F0000;rounded=1;fontColor=#ffffff;" vertex="1" parent="WIyWlLk6GJQsqaUBKTNV-1">
          <mxGeometry x="730" y="1170" width="380" height="108" as="geometry" />
        </mxCell>
        <mxCell id="G9MkarZCaZgqYIB9QYQQ-6" value="NewDataBlockIter" style="text;strokeColor=default;fillColor=none;align=left;verticalAlign=top;spacingLeft=4;spacingRight=4;overflow=hidden;rotatable=0;points=[[0,0.5],[1,0.5]];portConstraint=eastwest;fontColor=#46495D;rounded=1;" vertex="1" parent="G9MkarZCaZgqYIB9QYQQ-5">
          <mxGeometry y="26" width="380" height="26" as="geometry" />
        </mxCell>
        <mxCell id="G9MkarZCaZgqYIB9QYQQ-7" value="执行到这里的时候已经找到了相应的DataBlock，需要在DataBlock内检&#xa;索了。DataBlock的位置用BlockHandle提供。" style="text;strokeColor=none;fillColor=none;align=left;verticalAlign=top;spacingLeft=4;spacingRight=4;overflow=hidden;rotatable=0;points=[[0,0.5],[1,0.5]];portConstraint=eastwest;fontColor=#46495D;rounded=1;" vertex="1" parent="G9MkarZCaZgqYIB9QYQQ-5">
          <mxGeometry y="52" width="380" height="48" as="geometry" />
        </mxCell>
        <mxCell id="G9MkarZCaZgqYIB9QYQQ-8" value="" style="line;strokeWidth=1;fillColor=none;align=left;verticalAlign=middle;spacingTop=-1;spacingLeft=3;spacingRight=3;rotatable=0;labelPosition=right;points=[];portConstraint=eastwest;strokeColor=#788AA3;fontColor=#46495D;rounded=1;" vertex="1" parent="G9MkarZCaZgqYIB9QYQQ-5">
          <mxGeometry y="100" width="380" height="8" as="geometry" />
        </mxCell>
        <mxCell id="G9MkarZCaZgqYIB9QYQQ-10" value="Call" style="edgeStyle=orthogonalEdgeStyle;rounded=0;orthogonalLoop=1;jettySize=auto;html=1;exitX=1;exitY=0.5;exitDx=0;exitDy=0;entryX=-0.005;entryY=0.156;entryDx=0;entryDy=0;entryPerimeter=0;" edge="1" parent="WIyWlLk6GJQsqaUBKTNV-1" source="Qbf2WHQw0iOhFHIbaigR-62" target="G9MkarZCaZgqYIB9QYQQ-7">
          <mxGeometry relative="1" as="geometry" />
        </mxCell>
        <mxCell id="G9MkarZCaZgqYIB9QYQQ-12" value="BlockBasedTable" style="swimlane;fontStyle=1;align=center;verticalAlign=top;childLayout=stackLayout;horizontal=1;startSize=26;horizontalStack=0;resizeParent=1;resizeParentMax=0;resizeLast=0;collapsible=1;marginBottom=0;fillColor=#a20025;strokeColor=#6F0000;rounded=1;fontColor=#ffffff;" vertex="1" parent="WIyWlLk6GJQsqaUBKTNV-1">
          <mxGeometry x="730" y="1320" width="380" height="108" as="geometry" />
        </mxCell>
        <mxCell id="G9MkarZCaZgqYIB9QYQQ-13" value="MaybeReadBlockAndLoadToCache" style="text;strokeColor=default;fillColor=none;align=left;verticalAlign=top;spacingLeft=4;spacingRight=4;overflow=hidden;rotatable=0;points=[[0,0.5],[1,0.5]];portConstraint=eastwest;fontColor=#46495D;rounded=1;" vertex="1" parent="G9MkarZCaZgqYIB9QYQQ-12">
          <mxGeometry y="26" width="380" height="26" as="geometry" />
        </mxCell>
        <mxCell id="G9MkarZCaZgqYIB9QYQQ-14" value="block cache不命中则读block" style="text;strokeColor=none;fillColor=none;align=left;verticalAlign=top;spacingLeft=4;spacingRight=4;overflow=hidden;rotatable=0;points=[[0,0.5],[1,0.5]];portConstraint=eastwest;fontColor=#46495D;rounded=1;" vertex="1" parent="G9MkarZCaZgqYIB9QYQQ-12">
          <mxGeometry y="52" width="380" height="48" as="geometry" />
        </mxCell>
        <mxCell id="G9MkarZCaZgqYIB9QYQQ-15" value="" style="line;strokeWidth=1;fillColor=none;align=left;verticalAlign=middle;spacingTop=-1;spacingLeft=3;spacingRight=3;rotatable=0;labelPosition=right;points=[];portConstraint=eastwest;strokeColor=#788AA3;fontColor=#46495D;rounded=1;" vertex="1" parent="G9MkarZCaZgqYIB9QYQQ-12">
          <mxGeometry y="100" width="380" height="8" as="geometry" />
        </mxCell>
        <mxCell id="G9MkarZCaZgqYIB9QYQQ-17" value="BlockFetcher" style="swimlane;fontStyle=1;align=center;verticalAlign=top;childLayout=stackLayout;horizontal=1;startSize=26;horizontalStack=0;resizeParent=1;resizeParentMax=0;resizeLast=0;collapsible=1;marginBottom=0;fillColor=#a20025;strokeColor=#6F0000;rounded=1;fontColor=#ffffff;" vertex="1" parent="WIyWlLk6GJQsqaUBKTNV-1">
          <mxGeometry x="730" y="1470" width="380" height="108" as="geometry" />
        </mxCell>
        <mxCell id="G9MkarZCaZgqYIB9QYQQ-18" value="ReadBlockContents" style="text;strokeColor=default;fillColor=none;align=left;verticalAlign=top;spacingLeft=4;spacingRight=4;overflow=hidden;rotatable=0;points=[[0,0.5],[1,0.5]];portConstraint=eastwest;fontColor=#46495D;rounded=1;" vertex="1" parent="G9MkarZCaZgqYIB9QYQQ-17">
          <mxGeometry y="26" width="380" height="26" as="geometry" />
        </mxCell>
        <mxCell id="G9MkarZCaZgqYIB9QYQQ-19" value="这里会用上层传入的BlockHandle去完成读操作" style="text;strokeColor=none;fillColor=none;align=left;verticalAlign=top;spacingLeft=4;spacingRight=4;overflow=hidden;rotatable=0;points=[[0,0.5],[1,0.5]];portConstraint=eastwest;fontColor=#46495D;rounded=1;" vertex="1" parent="G9MkarZCaZgqYIB9QYQQ-17">
          <mxGeometry y="52" width="380" height="48" as="geometry" />
        </mxCell>
        <mxCell id="G9MkarZCaZgqYIB9QYQQ-20" value="" style="line;strokeWidth=1;fillColor=none;align=left;verticalAlign=middle;spacingTop=-1;spacingLeft=3;spacingRight=3;rotatable=0;labelPosition=right;points=[];portConstraint=eastwest;strokeColor=#788AA3;fontColor=#46495D;rounded=1;" vertex="1" parent="G9MkarZCaZgqYIB9QYQQ-17">
          <mxGeometry y="100" width="380" height="8" as="geometry" />
        </mxCell>
      </root>
    </mxGraphModel>
  </diagram>
  <diagram id="m46GOAiehJxaxiVNO8Wq" name="第 2 页">
    <mxGraphModel dx="946" dy="614" grid="1" gridSize="10" guides="1" tooltips="1" connect="1" arrows="1" fold="1" page="1" pageScale="1" pageWidth="1169" pageHeight="1654" math="0" shadow="0">
      <root>
        <mxCell id="0" />
        <mxCell id="1" parent="0" />
      </root>
    </mxGraphModel>
  </diagram>
</mxfile>
